HIERARCHY
ROOT Pelvis
{
	OFFSET 0.000000 0.000000 0.000000
	CHANNELS 6 Xposition Yposition Zposition Xrotation Yrotation Zrotation
	JOINT LeftUpLeg_virtual
	{
		OFFSET 0.000000 0.000000 0.000000
		CHANNELS 3 Xrotation Yrotation Zrotation
		JOINT LeftUpLeg
		{
			OFFSET 18.735201 -5.666702 -4.541200
			CHANNELS 3 Xrotation Yrotation Zrotation
			JOINT LeftLeg
			{
				OFFSET -0.021200 -31.938179 0.493100
				CHANNELS 3 Xrotation Yrotation Zrotation
				JOINT LeftFoot
				{
					OFFSET 0.021200 -31.938179 -4.336299
					CHANNELS 3 Xrotation Yrotation Zrotation
					JOINT LeftToeBase
					{
						OFFSET 0.943001 -26.722000 15.023500
						CHANNELS 3 Xrotation Yrotation Zrotation
						End Site
						{
							OFFSET 0 0 0
						}
					}
				}
			}
		}
	}
	JOINT RightUpLeg_virtual
	{
		OFFSET 0.000000 0.000000 0.000000
		CHANNELS 3 Xrotation Yrotation Zrotation
		JOINT RightUpLeg
		{
			OFFSET -18.735201 -5.666702 -4.541200
			CHANNELS 3 Xrotation Yrotation Zrotation
			JOINT RightLeg
			{
				OFFSET 0.018946 -31.938133 0.493100
				CHANNELS 3 Xrotation Yrotation Zrotation
				JOINT RightFoot
				{
					OFFSET -0.018946 -31.938126 -4.336299
					CHANNELS 3 Xrotation Yrotation Zrotation
					JOINT RightToeBase
					{
						OFFSET -0.943001 -26.722004 15.023500
						CHANNELS 3 Xrotation Yrotation Zrotation
						End Site
						{
							OFFSET 0 0 0
						}
					}
				}
			}
		}
	}
	JOINT Hips_virtual
	{
		OFFSET 0.000000 0.000000 0.000000
		CHANNELS 3 Xrotation Yrotation Zrotation
		JOINT Hips
		{
			OFFSET -0.000000 -0.000000 -0.000000
			CHANNELS 3 Xrotation Yrotation Zrotation
			JOINT Spine
			{
				OFFSET 0.000000 10.199997 -0.299500
				CHANNELS 3 Xrotation Yrotation Zrotation
				JOINT Spine1
				{
					OFFSET 0.000000 11.900002 -1.516600
					CHANNELS 3 Xrotation Yrotation Zrotation
					JOINT Spine2
					{
						OFFSET 0.000000 13.600006 -2.842500
						CHANNELS 3 Xrotation Yrotation Zrotation
						JOINT Neck_virtual
						{
							OFFSET 0.000000 0.000000 0.000000
							CHANNELS 3 Xrotation Yrotation Zrotation
							JOINT Neck
							{
								OFFSET 0.000000 9.624100 -2.890100
								CHANNELS 3 Xrotation Yrotation Zrotation
								JOINT Head
								{
									OFFSET 0.000000 14.068802 -1.351900
									CHANNELS 3 Xrotation Yrotation Zrotation
									End Site
									{
										OFFSET 0 0 0
									}
								}
							}
						}
						JOINT LeftShoulder_virtual
						{
							OFFSET 0.000000 0.000000 0.000000
							CHANNELS 3 Xrotation Yrotation Zrotation
							JOINT LeftShoulder
							{
								OFFSET 15.263000 10.923401 -0.547700
								CHANNELS 3 Xrotation Yrotation Zrotation
								JOINT LeftArm
								{
									OFFSET 25.438599 -2.830597 -13.032500
									CHANNELS 3 Xrotation Yrotation Zrotation
									JOINT LeftForeArm
									{
										OFFSET 29.960503 0.000000 0.000000
										CHANNELS 3 Xrotation Yrotation Zrotation
										JOINT LeftHand
										{
											OFFSET 27.849251 0.000000 0.000000
											CHANNELS 3 Xrotation Yrotation Zrotation
											End Site
											{
												OFFSET 0 0 0
											}
										}
									}
								}
							}
						}
						JOINT RightShoulder_virtual
						{
							OFFSET 0.000000 0.000000 0.000000
							CHANNELS 3 Xrotation Yrotation Zrotation
							JOINT RightShoulder
							{
								OFFSET -15.263000 10.923401 -0.547700
								CHANNELS 3 Xrotation Yrotation Zrotation
								JOINT RightArm
								{
									OFFSET -25.438599 -2.830597 -13.032500
									CHANNELS 3 Xrotation Yrotation Zrotation
									JOINT RightForeArm
									{
										OFFSET -29.960503 0.000000 0.000000
										CHANNELS 3 Xrotation Yrotation Zrotation
										JOINT RightHand
										{
											OFFSET -27.849251 0.000000 0.000000
											CHANNELS 3 Xrotation Yrotation Zrotation
											End Site
											{
												OFFSET 0 0 0
											}
										}
									}
								}
							}
						}
					}
				}
			}
		}
	}
}
MOTION
Frames: 10
Frame Time: 0.03333333
4.327806 89.128052 -2.427391 0.000000 0.000000 0.000000 7.742700 -32.336168 -17.315368 -40.693881 -10.602365 23.883438 65.214052 6.034327 9.755172 -20.876791 31.661718 -13.940729 0.000000 0.000000 0.000000 7.742700 -32.336168 -17.315368 -22.418844 6.037549 25.436651 -0.314043 -0.418357 3.338342 17.830410 11.771032 -5.296406 0.000000 0.000000 0.000000 7.742700 -32.336168 -17.315368 -0.000001 0.000001 0.000001 19.768565 -6.712380 12.336353 14.882776 -0.853694 11.261192 0.000000 0.000000 0.000000 15.131246 -0.648052 9.675234 0.498569 -0.565460 2.363964 0.000000 0.000000 0.000000 15.131246 -0.648052 9.675234 1.428814 -22.224476 -11.600549 -29.377094 -24.713916 -57.022849 -0.000000 -6.918352 0.000005 0.000000 0.000000 0.000000 15.131246 -0.648052 9.675234 2.724532 8.294350 13.453004 6.429295 49.813826 20.457863 0.000001 22.722608 -0.000003 0.000000 0.000000 0.000000 
4.216009 89.142708 -2.425289 0.000000 0.000000 0.000000 7.750036 -32.063647 -17.294271 -40.754482 -10.564980 24.004625 65.079135 5.995404 9.753876 -20.792520 31.272998 -13.985867 0.000000 0.000000 0.000000 7.750036 -32.063647 -17.294271 -22.333672 6.059912 25.515145 -0.311888 -0.367106 3.277115 17.685358 11.459615 -5.371360 0.000000 0.000000 0.000000 7.750036 -32.063647 -17.294271 0.000000 0.000001 -0.000001 19.624015 -6.765307 12.490432 14.807954 -0.877138 11.320874 0.000000 0.000000 0.000000 15.054849 -0.669728 9.734744 0.518158 -0.564814 2.359691 0.000000 0.000000 0.000000 15.054849 -0.669728 9.734744 1.413653 -22.300060 -11.647849 -29.076747 -25.170190 -57.285350 -0.000008 -6.920558 0.000005 0.000000 0.000000 0.000000 15.054849 -0.669728 9.734744 2.887485 8.303043 12.724784 6.502535 49.145072 20.735549 0.000006 23.528018 -0.000024 0.000000 0.000000 0.000000 
4.103912 89.171944 -2.410233 0.000000 0.000000 0.000000 7.742683 -31.719515 -17.257938 -40.765612 -10.561346 24.057127 64.868369 6.039691 9.754191 -20.651041 30.814344 -14.066851 0.000000 0.000000 0.000000 7.742683 -31.719515 -17.257938 -22.206682 6.093260 25.557282 -0.313523 -0.318007 3.218091 17.508654 11.095881 -5.443796 0.000000 0.000000 0.000000 7.742683 -31.719515 -17.257938 -0.000001 0.000000 0.000000 19.487208 -6.809311 12.650076 14.733111 -0.897702 11.382968 0.000000 0.000000 0.000000 14.978625 -0.687924 9.796562 0.536401 -0.565852 2.357043 0.000000 0.000000 0.000000 14.978625 -0.687924 9.796562 1.400860 -22.363192 -11.688504 -28.676225 -25.589621 -57.546932 0.000000 -6.924428 0.000006 0.000000 0.000000 0.000000 14.978625 -0.687924 9.796562 3.056622 8.299160 11.995884 6.503500 48.500852 21.102856 0.000001 24.320688 -0.000020 0.000000 0.000000 0.000000 
3.992201 89.212318 -2.379520 0.000000 0.000000 0.000000 7.720579 -31.326161 -17.214020 -40.725942 -10.584001 24.049788 64.612053 6.090856 9.756283 -20.490125 30.374842 -14.143560 0.000000 0.000000 0.000000 7.720579 -31.326161 -17.214020 -22.038427 6.134286 25.567939 -0.320807 -0.298519 3.166777 17.309352 10.727231 -5.523559 0.000000 0.000000 0.000000 7.720579 -31.326161 -17.214020 0.000000 0.000000 0.000002 19.348010 -6.839647 12.818740 14.656558 -0.912790 11.448696 0.000000 0.000000 0.000000 14.900845 -0.700193 9.861862 0.553391 -0.569008 2.355689 0.000000 0.000000 0.000000 14.900845 -0.700193 9.861862 1.391949 -22.407243 -11.717317 -28.180167 -25.969914 -57.807210 -0.000004 -6.932595 0.000007 0.000000 0.000000 0.000000 14.900845 -0.700193 9.861862 3.230745 8.286842 11.261522 6.415855 47.880067 21.578734 -0.000005 25.090753 0.000013 0.000000 0.000000 0.000000 
3.880907 89.258453 -2.331810 0.000000 0.000000 0.000000 7.687180 -30.904489 -17.172885 -40.644297 -10.630730 24.002869 64.341796 6.112134 9.759296 -20.336330 29.995903 -14.201252 0.000000 0.000000 0.000000 7.687180 -30.904489 -17.172885 -21.837976 6.181072 25.560308 -0.333197 -0.310522 3.124189 17.093894 10.369874 -5.608951 0.000000 0.000000 0.000000 7.687180 -30.904489 -17.172885 0.000000 0.000000 0.000001 19.193656 -6.859160 13.003070 14.574857 -0.922786 11.520559 0.000000 0.000000 0.000000 14.818070 -0.707202 9.933159 0.570460 -0.574108 2.354384 0.000000 0.000000 0.000000 14.818070 -0.707202 9.933159 1.387863 -22.429738 -11.728966 -27.596956 -26.306125 -58.066416 -0.000013 -6.944686 -0.000013 0.000000 0.000000 0.000000 14.818070 -0.707202 9.933159 3.408908 8.266857 10.523083 6.225399 47.281035 22.180172 -0.000003 25.830527 0.000014 0.000000 0.000000 0.000000 
3.770008 89.304893 -2.267548 0.000000 0.000000 0.000000 7.646557 -30.467814 -17.145402 -40.534379 -10.706567 23.938671 64.081613 6.117823 9.762139 -20.199490 29.662897 -14.251226 0.000000 0.000000 0.000000 7.646557 -30.467814 -17.145402 -21.612725 6.233069 25.549356 -0.355338 -0.335098 3.090885 16.866566 10.012035 -5.694979 0.000000 0.000000 0.000000 7.646557 -30.467814 -17.145402 0.000001 0.000000 0.000000 19.016871 -6.878658 13.209245 14.485564 -0.931507 11.600977 0.000000 0.000000 0.000000 14.727554 -0.712935 10.012966 0.590105 -0.579840 2.350130 0.000000 0.000000 0.000000 14.727554 -0.712935 10.012966 1.388707 -22.433338 -11.720260 -26.936449 -26.594154 -58.321196 0.000001 -6.957219 0.000001 0.000000 0.000000 0.000000 14.727554 -0.712935 10.012966 3.590227 8.238091 9.784826 5.918711 46.701787 22.923766 -0.000001 26.531448 -0.000015 0.000000 0.000000 0.000000 
3.660118 89.348022 -2.188236 0.000000 0.000000 0.000000 7.599063 -30.022684 -17.140710 -40.406337 -10.815522 23.875000 63.844811 6.137771 9.764298 -20.080054 29.341666 -14.311349 0.000000 0.000000 0.000000 7.599063 -30.022684 -17.140710 -21.367373 6.285017 25.542961 -0.385907 -0.349897 3.071713 16.630121 9.637674 -5.776674 0.000000 0.000000 0.000000 7.599063 -30.022684 -17.140710 0.000000 0.000000 0.000003 18.820841 -6.910554 13.438018 14.389414 -0.943977 11.690324 0.000000 0.000000 0.000000 14.629862 -0.722369 10.101665 0.614932 -0.583918 2.338300 0.000000 0.000000 0.000000 14.629862 -0.722369 10.101665 1.393441 -22.425009 -11.692012 -26.210168 -26.834437 -58.561912 0.000015 -6.963285 0.000007 0.000000 0.000000 0.000000 14.629862 -0.722369 10.101665 3.773729 8.199926 9.049964 5.482796 46.140353 23.825853 -0.000001 27.178858 0.000015 0.000000 0.000000 0.000000 
3.552715 89.387390 -2.095322 0.000000 0.000000 0.000000 7.538941 -29.572551 -17.163082 -40.262927 -10.947520 23.822231 63.635807 6.177661 9.766198 -19.981713 29.015361 -14.382603 0.000000 0.000000 0.000000 7.538941 -29.572551 -17.163082 -21.093578 6.324458 25.536431 -0.424469 -0.346155 3.077282 16.388872 9.253644 -5.858608 0.000000 0.000000 0.000000 7.538941 -29.572551 -17.163082 -0.000000 -0.000001 -0.000001 18.618925 -6.961682 13.681097 14.290947 -0.963464 11.785261 0.000000 0.000000 0.000000 14.529452 -0.738702 10.195975 0.646138 -0.584381 2.315508 0.000000 0.000000 0.000000 14.529452 -0.738702 10.195975 1.400132 -22.413623 -11.649754 -25.433838 -27.033906 -58.773074 -0.000016 -6.952682 0.000002 0.000000 0.000000 0.000000 14.529452 -0.738702 10.195975 3.958485 8.152907 8.319707 4.906726 45.594477 24.899996 0.000002 27.749640 -0.000010 0.000000 0.000000 0.000000 
3.450218 89.426308 -1.989628 0.000000 0.000000 0.000000 7.455532 -29.118261 -17.209336 -40.101137 -11.071188 23.783794 63.448031 6.202822 9.768329 -19.914405 28.694192 -14.438912 0.000000 0.000000 0.000000 7.455532 -29.118261 -17.209336 -20.768725 6.332608 25.512724 -0.474659 -0.333858 3.118199 16.149810 8.896327 -5.952031 0.000000 0.000000 0.000000 7.455532 -29.118261 -17.209336 0.000000 0.000002 0.000000 18.429017 -7.030908 13.921715 14.196978 -0.990533 11.878865 0.000000 0.000000 0.000000 14.433194 -0.762546 10.289089 0.682498 -0.580343 2.281110 0.000000 0.000000 0.000000 14.433194 -0.762546 10.289089 1.406610 -22.407339 -11.602879 -24.630164 -27.205463 -58.936835 -0.000001 -6.912853 0.000013 0.000000 0.000000 0.000000 14.433194 -0.762546 10.289089 4.143568 8.098023 7.594799 4.184740 45.060981 26.153827 0.000003 28.216360 0.000001 0.000000 0.000000 0.000000 
3.355551 89.470940 -1.871284 0.000000 0.000000 0.000000 7.336344 -28.654245 -17.268711 -39.914396 -11.144716 23.754295 63.264176 6.163739 9.770669 -19.887269 28.394826 -14.442083 0.000000 0.000000 0.000000 7.336344 -28.654245 -17.268711 -20.369777 6.294420 25.450287 -0.533490 -0.331671 3.197762 15.912995 8.604585 -6.066516 0.000000 0.000000 0.000000 7.336344 -28.654245 -17.268711 0.000000 0.000001 0.000000 18.266069 -7.112292 14.139662 14.113575 -1.023745 11.962491 0.000000 0.000000 0.000000 14.347559 -0.793150 10.372735 0.721142 -0.572060 2.236584 0.000000 0.000000 0.000000 14.347559 -0.793150 10.372735 1.410835 -22.411068 -11.562709 -23.830059 -27.365170 -59.037915 -0.000005 -6.830938 0.000003 0.000000 0.000000 0.000000 14.347559 -0.793150 10.372735 4.328162 8.035829 6.876726 3.318612 44.535183 27.586511 0.000002 28.555788 -0.000021 0.000000 0.000000 0.000000 
